<?xml version="1.0" encoding="UTF-8" standalone="no"?>
<!-- Created with Inkscape (http://www.inkscape.org/) -->

<svg
   width="300"
   height="300"
   viewBox="0 0 79.375 79.375"
   version="1.1"
   id="svg5"
   inkscape:version="1.1 (c4e8f9ed74, 2021-05-24)"
   sodipodi:docname="lines.svg"
   xmlns:inkscape="http://www.inkscape.org/namespaces/inkscape"
   xmlns:sodipodi="http://sodipodi.sourceforge.net/DTD/sodipodi-0.dtd"
   xmlns:xlink="http://www.w3.org/1999/xlink"
   xmlns="http://www.w3.org/2000/svg"
   xmlns:svg="http://www.w3.org/2000/svg">
  <sodipodi:namedview
     id="namedview7"
     pagecolor="#505050"
     bordercolor="#eeeeee"
     borderopacity="1"
     inkscape:pageshadow="0"
     inkscape:pageopacity="0"
     inkscape:pagecheckerboard="0"
     inkscape:document-units="px"
     showgrid="false"
     inkscape:lockguides="true"
     inkscape:snap-page="true"
     inkscape:snap-bbox="true"
     inkscape:bbox-paths="true"
     inkscape:bbox-nodes="true"
     inkscape:snap-bbox-edge-midpoints="true"
     inkscape:snap-bbox-midpoints="true"
     inkscape:zoom="1.5556349"
     inkscape:cx="244.59466"
     inkscape:cy="220.16734"
     inkscape:window-width="1920"
     inkscape:window-height="1007"
     inkscape:window-x="0"
     inkscape:window-y="0"
     inkscape:window-maximized="1"
     inkscape:current-layer="layer1" />
  <defs
     id="defs2">
    <linearGradient
       inkscape:collect="always"
       id="linearGradient6497">
      <stop
         style="stop-color:#ffa3c2;stop-opacity:1"
         offset="0"
         id="stop6493" />
      <stop
         style="stop-color:#e9a3c2;stop-opacity:1"
         offset="1"
         id="stop6495" />
    </linearGradient>
    <inkscape:path-effect
       effect="spiro"
       id="path-effect5551"
       is_visible="true"
       lpeversion="1" />
    <radialGradient
       inkscape:collect="always"
       xlink:href="#linearGradient6497"
       id="radialGradient6499"
       cx="39.6875"
       cy="39.6875"
       fx="39.6875"
       fy="39.6875"
       r="39.6875"
       gradientUnits="userSpaceOnUse" />
  </defs>
  <g
     inkscape:label="Layer 1"
     inkscape:groupmode="layer"
     id="layer1">
    <circle
       style="fill:url(#radialGradient6499);fill-opacity:1;stroke-width:0.341064"
       id="path846"
       cx="39.6875"
       cy="39.6875"
       r="39.6875" />
    <path
       style="fill:none;stroke:#f9fbff;stroke-width:2.64583;stroke-linecap:butt;stroke-linejoin:miter;stroke-miterlimit:4;stroke-dasharray:none;stroke-opacity:1"
       d="m 7.0327877,29.863398 c 0,0 19.4877463,0.698692 20.6384073,2.525139 1.150661,1.826447 -13.695913,17.073892 -13.695913,17.073892"
       id="path3478"
       sodipodi:nodetypes="czc" />
    <path
       style="fill:none;stroke:#f9fbff;stroke-width:2.64583;stroke-linecap:butt;stroke-linejoin:miter;stroke-miterlimit:4;stroke-dasharray:none;stroke-opacity:1"
       d="m 57.186267,10.183743 c 0,0 -14.896884,13.885612 -13.6891,15.650197 1.207784,1.764585 21.593318,3.58112 21.593318,3.58112"
       id="path3478-3"
       sodipodi:nodetypes="czc" />
    <path
       id="path7978"
       style="fill:none;stroke:#ffffff;stroke-width:10;stroke-linecap:butt;stroke-linejoin:miter;stroke-miterlimit:4;stroke-dasharray:none;stroke-opacity:1"
       d="m 130.68657,298.66645 c 4.4873,-39.90684 12.19483,-77.06219 25.3306,-76.54066 16.97786,0.67408 23.87795,41.65608 26.68133,74.25362"
       transform="scale(0.26458333)" />
    <path
       id="path8311"
       style="fill:none;stroke:#ffffff;stroke-width:10;stroke-linecap:butt;stroke-linejoin:miter;stroke-miterlimit:4;stroke-dasharray:none;stroke-opacity:1"
       d="m 271.02642,238.58861 c -20.80725,-27.63693 -41.03864,-48.43776 -50.0327,-39.87939 -12.72712,12.11059 -0.48458,47.95862 12.14674,76.11368"
       transform="scale(0.26458333)" />
    <path
       style="fill:none;stroke:#ffffff;stroke-width:2.64583;stroke-linecap:butt;stroke-linejoin:miter;stroke-miterlimit:4;stroke-dasharray:none;stroke-opacity:1"
       d="m 31.11425,50.525565 c 0.01292,0.828883 0.262727,1.652757 0.712315,2.349236 0.449587,0.69648 1.097528,1.263354 1.847569,1.616413 0.750042,0.353059 1.599803,0.491183 2.423053,0.393853 0.82325,-0.09733 1.617373,-0.429806 2.264405,-0.948037 1.081034,-0.865839 1.692825,-2.17022 2.483737,-3.307221 0.395456,-0.5685 0.847891,-1.107528 1.409937,-1.512104 0.562047,-0.404576 1.243939,-0.668148 1.935976,-0.642404 0.479164,0.01782 0.945245,0.172191 1.374409,0.386047 0.429163,0.213856 0.825755,0.486661 1.221712,0.757094 0.395956,0.270433 0.794711,0.540507 1.226898,0.748185 0.432187,0.207678 0.9022,0.352137 1.381678,0.35621 0.435711,0.0037 0.868998,-0.109566 1.258914,-0.304048 0.389916,-0.194481 0.737342,-0.468683 1.036005,-0.785949 0.597327,-0.634532 0.994733,-1.429044 1.337367,-2.230313 0.342634,-0.801269 0.641019,-1.62563 1.078499,-2.379315 0.437479,-0.753686 1.03341,-1.445246 1.818081,-1.824353 0.744905,-0.359894 1.63406,-0.409286 2.414243,-0.134109 0.780182,0.275177 1.441599,0.87147 1.795885,1.619058"
       id="path5549"
       inkscape:original-d="m 31.11425,50.525565 c 2.415888,1.137209 4.831667,2.274364 7.247342,3.411465 2.415673,1.137101 3.886539,-3.641098 5.82965,-5.461729 1.94311,-1.820631 3.469905,1.498411 5.204697,2.247536 1.734793,0.749124 4.352685,-5.015931 6.528866,-7.523978 2.176182,-2.508046 2.806859,0.99002 4.210128,1.484949"
       inkscape:path-effect="#path-effect5551" />
  </g>
</svg>
