<svg width="512" height="512" version="1.1" viewBox="0 0 135.47 135.47" xmlns="http://www.w3.org/2000/svg" xmlns:xlink="http://www.w3.org/1999/xlink">
 <defs>
  <linearGradient id="linearGradient7542" x1="46.472" x2="111.17" y1="65.212" y2="111.51" gradientUnits="userSpaceOnUse">
   <stop stop-color="#17232d" offset="0"/>
   <stop stop-color="#445564" stop-opacity=".98824" offset="1"/>
  </linearGradient>
  <linearGradient id="linearGradient8050" x1="135.47" x2="43.073" y1="123.85" y2="71.1" gradientUnits="userSpaceOnUse">
   <stop stop-color="#5c7eac" offset="0"/>
   <stop stop-color="#8ec8ff" offset="1"/>
  </linearGradient>
  <linearGradient id="linearGradient9393" x1="92.394" x2="121.72" y1="71.1" y2="54.869" gradientUnits="userSpaceOnUse">
   <stop stop-color="#072239" offset="0"/>
   <stop stop-color="#6da2ef" offset="1"/>
  </linearGradient>
 </defs>
 <g>
  <circle cx="87.123" cy="74.189" r="39.625" fill="url(#linearGradient9393)" fill-rule="evenodd" stroke-linejoin="round" stroke-width="1.4708"/>
  <path d="m62.383 15.048c2.3786-4.1196 8.3238-4.1196 10.702 0l57.266 99.192c2.3786 4.1196-0.59532 9.2684-5.3525 9.2684h-114.53c-4.7572 0-7.7311-5.1488-5.3525-9.2684l28.633-49.596z" fill="url(#linearGradient8050)" stroke-width=".26458"/>
  <path d="m111.7 104.55-38.619-66.892c-2.3786-4.1196-8.3238-4.1196-10.702 0l-38.619 66.892c-2.3786 4.1196 0.59531 9.2684 5.3525 9.2684h22.59l6.8077-11.79 7.0855-12.271c0.87312-1.5108 3.0533-1.5108 3.9264 0l7.0855 12.271 6.8077 11.79h22.937c4.7519 3e-3 7.7258-5.1488 5.3472-9.2684z" fill="url(#linearGradient7542)" stroke-width=".26458"/>
 </g>
</svg>
