<?xml version="1.0" standalone="no"?><!DOCTYPE svg PUBLIC "-//W3C//DTD SVG 1.1//EN" "http://www.w3.org/Graphics/SVG/1.1/DTD/svg11.dtd"><svg t="1630049317983" class="icon" viewBox="0 0 1024 1024" version="1.1" xmlns="http://www.w3.org/2000/svg" p-id="6959" xmlns:xlink="http://www.w3.org/1999/xlink" width="200" height="200"><defs><style type="text/css"></style></defs><path d="M512 149.333333c200.298667 0 362.666667 162.368 362.666667 362.666667s-162.368 362.666667-362.666667 362.666667S149.333333 712.298667 149.333333 512 311.701333 149.333333 512 149.333333z m0 64c-164.949333 0-298.666667 133.717333-298.666667 298.666667s133.717333 298.666667 298.666667 298.666667 298.666667-133.717333 298.666667-298.666667-133.717333-298.666667-298.666667-298.666667z m39.658667 426.666667v64h-59.946667l-0.021333-64h59.968z m-3.541334-316.757333c38.72 7.808 84.778667 44.736 84.778667 98.453333 0 53.738667-43.882667 74.069333-59.605333 84.117333-14.506667 9.28-20.672 19.882667-21.525334 31.189334l-0.106666 2.816V597.333333h-59.968v-79.338666c0-18.816 6.037333-32 22.826666-43.648l3.776-2.496 33.685334-22.4c21.482667-14.464 21.184-43.498667 7.893333-56.32a60.373333 60.373333 0 0 0-52.842667-13.546667c-37.376 7.338667-41.685333 33.706667-41.941333 59.306667v14.485333H405.333333c0-49.834667 5.717333-72.426667 32.298667-100.970667 29.781333-31.893333 71.744-37.013333 110.485333-29.162666z" p-id="6960" fill="#ffffff"></path></svg>