<?xml version="1.0" standalone="no"?><!DOCTYPE svg PUBLIC "-//W3C//DTD SVG 1.1//EN" "http://www.w3.org/Graphics/SVG/1.1/DTD/svg11.dtd"><svg t="1630049664082" class="icon" viewBox="0 0 1024 1024" version="1.1" xmlns="http://www.w3.org/2000/svg" p-id="7643" xmlns:xlink="http://www.w3.org/1999/xlink" width="200" height="200"><defs><style type="text/css"></style></defs><path d="M512 128c164.949333 0 298.666667 129.941333 298.666667 290.261333 0 3.392-0.064 6.784-0.213334 10.24-3.669333 95.914667-58.24 203.776-147.797333 313.173334a1260.714667 1260.714667 0 0 1-139.818667 144.768l-10.837333 9.322666-10.837333-9.322666-13.013334-11.626667a1260.714667 1260.714667 0 0 1-126.805333-133.162667c-89.557333-109.376-144.128-217.237333-147.818667-313.173333-0.128-3.413333-0.192-6.826667-0.192-10.24 0-158.08 130.069333-286.677333 291.904-290.176L512 128z m0 64c-130.005333 0-234.666667 101.717333-234.666667 226.261333 0 2.56 0.042667 5.141333 0.149334 7.765334 2.944 76.608 48.554667 171.52 133.376 275.093333a1184.682667 1184.682667 0 0 0 86.613333 94.506667l14.528 14.016 14.506667-14.016a1184.682667 1184.682667 0 0 0 86.634666-94.506667c84.821333-103.573333 130.432-198.485333 133.376-275.093333 0.106667-2.624 0.149333-5.205333 0.149334-7.765334C746.666667 293.717333 642.005333 192 512 192z m0 74.666667a149.333333 149.333333 0 1 1 0 298.666666 149.333333 149.333333 0 0 1 0-298.666666z m0 64a85.333333 85.333333 0 1 0 0 170.666666 85.333333 85.333333 0 0 0 0-170.666666z" p-id="7644" fill="#ffffff"></path></svg>