<?xml version="1.0" encoding="UTF-8"?>
<svg width="296" height="296" version="1.1" viewBox="0 0 296 296" xmlns="http://www.w3.org/2000/svg" xmlns:xlink="http://www.w3.org/1999/xlink">
 <defs>
  <rect id="p" width="8" height="8"/>
 </defs>
 <g fill="#e3e3e3">
  <use x="32" y="32" xlink:href="#p"/>
  <use x="32" y="40" xlink:href="#p"/>
  <use x="32" y="48" xlink:href="#p"/>
  <use x="32" y="56" xlink:href="#p"/>
  <use x="32" y="64" xlink:href="#p"/>
  <use x="32" y="72" xlink:href="#p"/>
  <use x="32" y="80" xlink:href="#p"/>
  <use x="32" y="96" xlink:href="#p"/>
  <use x="32" y="112" xlink:href="#p"/>
  <use x="32" y="128" xlink:href="#p"/>
  <use x="32" y="144" xlink:href="#p"/>
  <use x="32" y="152" xlink:href="#p"/>
  <use x="32" y="160" xlink:href="#p"/>
  <use x="32" y="208" xlink:href="#p"/>
  <use x="32" y="216" xlink:href="#p"/>
  <use x="32" y="224" xlink:href="#p"/>
  <use x="32" y="232" xlink:href="#p"/>
  <use x="32" y="240" xlink:href="#p"/>
  <use x="32" y="248" xlink:href="#p"/>
  <use x="32" y="256" xlink:href="#p"/>
  <use x="40" y="32" xlink:href="#p"/>
  <use x="40" y="80" xlink:href="#p"/>
  <use x="40" y="112" xlink:href="#p"/>
  <use x="40" y="144" xlink:href="#p"/>
  <use x="40" y="160" xlink:href="#p"/>
  <use x="40" y="208" xlink:href="#p"/>
  <use x="40" y="256" xlink:href="#p"/>
  <use x="48" y="32" xlink:href="#p"/>
  <use x="48" y="48" xlink:href="#p"/>
  <use x="48" y="56" xlink:href="#p"/>
  <use x="48" y="64" xlink:href="#p"/>
  <use x="48" y="80" xlink:href="#p"/>
  <use x="48" y="136" xlink:href="#p"/>
  <use x="48" y="152" xlink:href="#p"/>
  <use x="48" y="184" xlink:href="#p"/>
  <use x="48" y="192" xlink:href="#p"/>
  <use x="48" y="208" xlink:href="#p"/>
  <use x="48" y="224" xlink:href="#p"/>
  <use x="48" y="232" xlink:href="#p"/>
  <use x="48" y="240" xlink:href="#p"/>
  <use x="48" y="256" xlink:href="#p"/>
  <use x="56" y="32" xlink:href="#p"/>
  <use x="56" y="48" xlink:href="#p"/>
  <use x="56" y="56" xlink:href="#p"/>
  <use x="56" y="64" xlink:href="#p"/>
  <use x="56" y="80" xlink:href="#p"/>
  <use x="56" y="96" xlink:href="#p"/>
  <use x="56" y="104" xlink:href="#p"/>
  <use x="56" y="112" xlink:href="#p"/>
  <use x="56" y="120" xlink:href="#p"/>
  <use x="56" y="128" xlink:href="#p"/>
  <use x="56" y="136" xlink:href="#p"/>
  <use x="56" y="144" xlink:href="#p"/>
  <use x="56" y="160" xlink:href="#p"/>
  <use x="56" y="168" xlink:href="#p"/>
  <use x="56" y="184" xlink:href="#p"/>
  <use x="56" y="192" xlink:href="#p"/>
  <use x="56" y="208" xlink:href="#p"/>
  <use x="56" y="224" xlink:href="#p"/>
  <use x="56" y="232" xlink:href="#p"/>
  <use x="56" y="240" xlink:href="#p"/>
  <use x="56" y="256" xlink:href="#p"/>
  <use x="64" y="32" xlink:href="#p"/>
  <use x="64" y="48" xlink:href="#p"/>
  <use x="64" y="56" xlink:href="#p"/>
  <use x="64" y="64" xlink:href="#p"/>
  <use x="64" y="80" xlink:href="#p"/>
  <use x="64" y="96" xlink:href="#p"/>
  <use x="64" y="136" xlink:href="#p"/>
  <use x="64" y="152" xlink:href="#p"/>
  <use x="64" y="168" xlink:href="#p"/>
  <use x="64" y="184" xlink:href="#p"/>
  <use x="64" y="192" xlink:href="#p"/>
  <use x="64" y="208" xlink:href="#p"/>
  <use x="64" y="224" xlink:href="#p"/>
  <use x="64" y="232" xlink:href="#p"/>
  <use x="64" y="240" xlink:href="#p"/>
  <use x="64" y="256" xlink:href="#p"/>
  <use x="72" y="32" xlink:href="#p"/>
  <use x="72" y="80" xlink:href="#p"/>
  <use x="72" y="96" xlink:href="#p"/>
  <use x="72" y="104" xlink:href="#p"/>
  <use x="72" y="128" xlink:href="#p"/>
  <use x="72" y="144" xlink:href="#p"/>
  <use x="72" y="152" xlink:href="#p"/>
  <use x="72" y="160" xlink:href="#p"/>
  <use x="72" y="176" xlink:href="#p"/>
  <use x="72" y="208" xlink:href="#p"/>
  <use x="72" y="256" xlink:href="#p"/>
  <use x="80" y="32" xlink:href="#p"/>
  <use x="80" y="40" xlink:href="#p"/>
  <use x="80" y="48" xlink:href="#p"/>
  <use x="80" y="56" xlink:href="#p"/>
  <use x="80" y="64" xlink:href="#p"/>
  <use x="80" y="72" xlink:href="#p"/>
  <use x="80" y="80" xlink:href="#p"/>
  <use x="80" y="96" xlink:href="#p"/>
  <use x="80" y="112" xlink:href="#p"/>
  <use x="80" y="128" xlink:href="#p"/>
  <use x="80" y="144" xlink:href="#p"/>
  <use x="80" y="160" xlink:href="#p"/>
  <use x="80" y="176" xlink:href="#p"/>
  <use x="80" y="192" xlink:href="#p"/>
  <use x="80" y="208" xlink:href="#p"/>
  <use x="80" y="216" xlink:href="#p"/>
  <use x="80" y="224" xlink:href="#p"/>
  <use x="80" y="232" xlink:href="#p"/>
  <use x="80" y="240" xlink:href="#p"/>
  <use x="80" y="248" xlink:href="#p"/>
  <use x="80" y="256" xlink:href="#p"/>
  <use x="88" y="96" xlink:href="#p"/>
  <use x="88" y="104" xlink:href="#p"/>
  <use x="88" y="128" xlink:href="#p"/>
  <use x="88" y="152" xlink:href="#p"/>
  <use x="88" y="168" xlink:href="#p"/>
  <use x="88" y="176" xlink:href="#p"/>
  <use x="88" y="192" xlink:href="#p"/>
  <use x="96" y="32" xlink:href="#p"/>
  <use x="96" y="40" xlink:href="#p"/>
  <use x="96" y="48" xlink:href="#p"/>
  <use x="96" y="64" xlink:href="#p"/>
  <use x="96" y="80" xlink:href="#p"/>
  <use x="96" y="96" xlink:href="#p"/>
  <use x="96" y="120" xlink:href="#p"/>
  <use x="96" y="128" xlink:href="#p"/>
  <use x="96" y="144" xlink:href="#p"/>
  <use x="96" y="152" xlink:href="#p"/>
  <use x="96" y="160" xlink:href="#p"/>
  <use x="96" y="176" xlink:href="#p"/>
  <use x="96" y="184" xlink:href="#p"/>
  <use x="96" y="192" xlink:href="#p"/>
  <use x="96" y="200" xlink:href="#p"/>
  <use x="96" y="208" xlink:href="#p"/>
  <use x="96" y="216" xlink:href="#p"/>
  <use x="96" y="224" xlink:href="#p"/>
  <use x="96" y="232" xlink:href="#p"/>
  <use x="96" y="256" xlink:href="#p"/>
  <use x="104" y="40" xlink:href="#p"/>
  <use x="104" y="48" xlink:href="#p"/>
  <use x="104" y="64" xlink:href="#p"/>
  <use x="104" y="88" xlink:href="#p"/>
  <use x="104" y="120" xlink:href="#p"/>
  <use x="104" y="152" xlink:href="#p"/>
  <use x="104" y="160" xlink:href="#p"/>
  <use x="104" y="168" xlink:href="#p"/>
  <use x="104" y="176" xlink:href="#p"/>
  <use x="104" y="184" xlink:href="#p"/>
  <use x="104" y="192" xlink:href="#p"/>
  <use x="104" y="232" xlink:href="#p"/>
  <use x="104" y="240" xlink:href="#p"/>
  <use x="112" y="40" xlink:href="#p"/>
  <use x="112" y="56" xlink:href="#p"/>
  <use x="112" y="72" xlink:href="#p"/>
  <use x="112" y="80" xlink:href="#p"/>
  <use x="112" y="88" xlink:href="#p"/>
  <use x="112" y="112" xlink:href="#p"/>
  <use x="112" y="120" xlink:href="#p"/>
  <use x="112" y="144" xlink:href="#p"/>
  <use x="112" y="152" xlink:href="#p"/>
  <use x="112" y="168" xlink:href="#p"/>
  <use x="112" y="208" xlink:href="#p"/>
  <use x="112" y="224" xlink:href="#p"/>
  <use x="112" y="232" xlink:href="#p"/>
  <use x="112" y="256" xlink:href="#p"/>
  <use x="120" y="48" xlink:href="#p"/>
  <use x="120" y="88" xlink:href="#p"/>
  <use x="120" y="96" xlink:href="#p"/>
  <use x="120" y="104" xlink:href="#p"/>
  <use x="120" y="128" xlink:href="#p"/>
  <use x="120" y="136" xlink:href="#p"/>
  <use x="120" y="144" xlink:href="#p"/>
  <use x="120" y="176" xlink:href="#p"/>
  <use x="120" y="200" xlink:href="#p"/>
  <use x="120" y="224" xlink:href="#p"/>
  <use x="120" y="240" xlink:href="#p"/>
  <use x="120" y="248" xlink:href="#p"/>
  <use x="120" y="256" xlink:href="#p"/>
  <use x="128" y="40" xlink:href="#p"/>
  <use x="128" y="48" xlink:href="#p"/>
  <use x="128" y="56" xlink:href="#p"/>
  <use x="128" y="80" xlink:href="#p"/>
  <use x="128" y="120" xlink:href="#p"/>
  <use x="128" y="152" xlink:href="#p"/>
  <use x="128" y="168" xlink:href="#p"/>
  <use x="128" y="176" xlink:href="#p"/>
  <use x="128" y="184" xlink:href="#p"/>
  <use x="128" y="192" xlink:href="#p"/>
  <use x="128" y="200" xlink:href="#p"/>
  <use x="128" y="208" xlink:href="#p"/>
  <use x="128" y="216" xlink:href="#p"/>
  <use x="128" y="224" xlink:href="#p"/>
  <use x="128" y="256" xlink:href="#p"/>
  <use x="136" y="88" xlink:href="#p"/>
  <use x="136" y="96" xlink:href="#p"/>
  <use x="136" y="104" xlink:href="#p"/>
  <use x="136" y="112" xlink:href="#p"/>
  <use x="136" y="120" xlink:href="#p"/>
  <use x="136" y="128" xlink:href="#p"/>
  <use x="136" y="136" xlink:href="#p"/>
  <use x="136" y="144" xlink:href="#p"/>
  <use x="136" y="168" xlink:href="#p"/>
  <use x="136" y="192" xlink:href="#p"/>
  <use x="136" y="224" xlink:href="#p"/>
  <use x="136" y="240" xlink:href="#p"/>
  <use x="136" y="248" xlink:href="#p"/>
  <use x="144" y="64" xlink:href="#p"/>
  <use x="144" y="80" xlink:href="#p"/>
  <use x="144" y="136" xlink:href="#p"/>
  <use x="144" y="160" xlink:href="#p"/>
  <use x="144" y="168" xlink:href="#p"/>
  <use x="144" y="184" xlink:href="#p"/>
  <use x="144" y="192" xlink:href="#p"/>
  <use x="144" y="200" xlink:href="#p"/>
  <use x="144" y="208" xlink:href="#p"/>
  <use x="144" y="216" xlink:href="#p"/>
  <use x="144" y="224" xlink:href="#p"/>
  <use x="144" y="240" xlink:href="#p"/>
  <use x="144" y="248" xlink:href="#p"/>
  <use x="144" y="256" xlink:href="#p"/>
  <use x="152" y="32" xlink:href="#p"/>
  <use x="152" y="48" xlink:href="#p"/>
  <use x="152" y="64" xlink:href="#p"/>
  <use x="152" y="72" xlink:href="#p"/>
  <use x="152" y="88" xlink:href="#p"/>
  <use x="152" y="112" xlink:href="#p"/>
  <use x="152" y="120" xlink:href="#p"/>
  <use x="152" y="128" xlink:href="#p"/>
  <use x="152" y="136" xlink:href="#p"/>
  <use x="152" y="144" xlink:href="#p"/>
  <use x="152" y="152" xlink:href="#p"/>
  <use x="152" y="160" xlink:href="#p"/>
  <use x="152" y="168" xlink:href="#p"/>
  <use x="152" y="176" xlink:href="#p"/>
  <use x="152" y="184" xlink:href="#p"/>
  <use x="152" y="200" xlink:href="#p"/>
  <use x="152" y="208" xlink:href="#p"/>
  <use x="152" y="216" xlink:href="#p"/>
  <use x="152" y="224" xlink:href="#p"/>
  <use x="152" y="232" xlink:href="#p"/>
  <use x="152" y="240" xlink:href="#p"/>
  <use x="152" y="248" xlink:href="#p"/>
  <use x="152" y="256" xlink:href="#p"/>
  <use x="160" y="32" xlink:href="#p"/>
  <use x="160" y="40" xlink:href="#p"/>
  <use x="160" y="48" xlink:href="#p"/>
  <use x="160" y="56" xlink:href="#p"/>
  <use x="160" y="64" xlink:href="#p"/>
  <use x="160" y="72" xlink:href="#p"/>
  <use x="160" y="80" xlink:href="#p"/>
  <use x="160" y="88" xlink:href="#p"/>
  <use x="160" y="96" xlink:href="#p"/>
  <use x="160" y="104" xlink:href="#p"/>
  <use x="160" y="112" xlink:href="#p"/>
  <use x="160" y="120" xlink:href="#p"/>
  <use x="160" y="136" xlink:href="#p"/>
  <use x="160" y="152" xlink:href="#p"/>
  <use x="160" y="160" xlink:href="#p"/>
  <use x="160" y="184" xlink:href="#p"/>
  <use x="160" y="192" xlink:href="#p"/>
  <use x="160" y="216" xlink:href="#p"/>
  <use x="160" y="232" xlink:href="#p"/>
  <use x="160" y="248" xlink:href="#p"/>
  <use x="168" y="32" xlink:href="#p"/>
  <use x="168" y="56" xlink:href="#p"/>
  <use x="168" y="96" xlink:href="#p"/>
  <use x="168" y="120" xlink:href="#p"/>
  <use x="168" y="136" xlink:href="#p"/>
  <use x="168" y="168" xlink:href="#p"/>
  <use x="168" y="176" xlink:href="#p"/>
  <use x="168" y="192" xlink:href="#p"/>
  <use x="168" y="200" xlink:href="#p"/>
  <use x="168" y="216" xlink:href="#p"/>
  <use x="168" y="224" xlink:href="#p"/>
  <use x="168" y="256" xlink:href="#p"/>
  <use x="176" y="48" xlink:href="#p"/>
  <use x="176" y="64" xlink:href="#p"/>
  <use x="176" y="80" xlink:href="#p"/>
  <use x="176" y="112" xlink:href="#p"/>
  <use x="176" y="120" xlink:href="#p"/>
  <use x="176" y="136" xlink:href="#p"/>
  <use x="176" y="144" xlink:href="#p"/>
  <use x="176" y="168" xlink:href="#p"/>
  <use x="176" y="176" xlink:href="#p"/>
  <use x="176" y="192" xlink:href="#p"/>
  <use x="176" y="200" xlink:href="#p"/>
  <use x="176" y="232" xlink:href="#p"/>
  <use x="176" y="240" xlink:href="#p"/>
  <use x="184" y="32" xlink:href="#p"/>
  <use x="184" y="40" xlink:href="#p"/>
  <use x="184" y="56" xlink:href="#p"/>
  <use x="184" y="64" xlink:href="#p"/>
  <use x="184" y="96" xlink:href="#p"/>
  <use x="184" y="104" xlink:href="#p"/>
  <use x="184" y="128" xlink:href="#p"/>
  <use x="184" y="136" xlink:href="#p"/>
  <use x="184" y="144" xlink:href="#p"/>
  <use x="184" y="152" xlink:href="#p"/>
  <use x="184" y="160" xlink:href="#p"/>
  <use x="184" y="168" xlink:href="#p"/>
  <use x="184" y="176" xlink:href="#p"/>
  <use x="184" y="184" xlink:href="#p"/>
  <use x="184" y="208" xlink:href="#p"/>
  <use x="184" y="216" xlink:href="#p"/>
  <use x="184" y="224" xlink:href="#p"/>
  <use x="184" y="256" xlink:href="#p"/>
  <use x="192" y="56" xlink:href="#p"/>
  <use x="192" y="80" xlink:href="#p"/>
  <use x="192" y="88" xlink:href="#p"/>
  <use x="192" y="96" xlink:href="#p"/>
  <use x="192" y="128" xlink:href="#p"/>
  <use x="192" y="144" xlink:href="#p"/>
  <use x="192" y="160" xlink:href="#p"/>
  <use x="192" y="192" xlink:href="#p"/>
  <use x="192" y="200" xlink:href="#p"/>
  <use x="192" y="208" xlink:href="#p"/>
  <use x="192" y="216" xlink:href="#p"/>
  <use x="192" y="224" xlink:href="#p"/>
  <use x="192" y="240" xlink:href="#p"/>
  <use x="192" y="256" xlink:href="#p"/>
  <use x="200" y="96" xlink:href="#p"/>
  <use x="200" y="104" xlink:href="#p"/>
  <use x="200" y="120" xlink:href="#p"/>
  <use x="200" y="144" xlink:href="#p"/>
  <use x="200" y="160" xlink:href="#p"/>
  <use x="200" y="192" xlink:href="#p"/>
  <use x="200" y="224" xlink:href="#p"/>
  <use x="200" y="232" xlink:href="#p"/>
  <use x="200" y="240" xlink:href="#p"/>
  <use x="208" y="32" xlink:href="#p"/>
  <use x="208" y="40" xlink:href="#p"/>
  <use x="208" y="48" xlink:href="#p"/>
  <use x="208" y="56" xlink:href="#p"/>
  <use x="208" y="64" xlink:href="#p"/>
  <use x="208" y="72" xlink:href="#p"/>
  <use x="208" y="80" xlink:href="#p"/>
  <use x="208" y="120" xlink:href="#p"/>
  <use x="208" y="128" xlink:href="#p"/>
  <use x="208" y="136" xlink:href="#p"/>
  <use x="208" y="144" xlink:href="#p"/>
  <use x="208" y="184" xlink:href="#p"/>
  <use x="208" y="192" xlink:href="#p"/>
  <use x="208" y="208" xlink:href="#p"/>
  <use x="208" y="224" xlink:href="#p"/>
  <use x="208" y="248" xlink:href="#p"/>
  <use x="208" y="256" xlink:href="#p"/>
  <use x="216" y="32" xlink:href="#p"/>
  <use x="216" y="80" xlink:href="#p"/>
  <use x="216" y="104" xlink:href="#p"/>
  <use x="216" y="112" xlink:href="#p"/>
  <use x="216" y="120" xlink:href="#p"/>
  <use x="216" y="128" xlink:href="#p"/>
  <use x="216" y="136" xlink:href="#p"/>
  <use x="216" y="152" xlink:href="#p"/>
  <use x="216" y="192" xlink:href="#p"/>
  <use x="216" y="224" xlink:href="#p"/>
  <use x="216" y="240" xlink:href="#p"/>
  <use x="216" y="248" xlink:href="#p"/>
  <use x="224" y="32" xlink:href="#p"/>
  <use x="224" y="48" xlink:href="#p"/>
  <use x="224" y="56" xlink:href="#p"/>
  <use x="224" y="64" xlink:href="#p"/>
  <use x="224" y="80" xlink:href="#p"/>
  <use x="224" y="96" xlink:href="#p"/>
  <use x="224" y="104" xlink:href="#p"/>
  <use x="224" y="112" xlink:href="#p"/>
  <use x="224" y="136" xlink:href="#p"/>
  <use x="224" y="144" xlink:href="#p"/>
  <use x="224" y="152" xlink:href="#p"/>
  <use x="224" y="168" xlink:href="#p"/>
  <use x="224" y="176" xlink:href="#p"/>
  <use x="224" y="192" xlink:href="#p"/>
  <use x="224" y="200" xlink:href="#p"/>
  <use x="224" y="208" xlink:href="#p"/>
  <use x="224" y="216" xlink:href="#p"/>
  <use x="224" y="224" xlink:href="#p"/>
  <use x="224" y="240" xlink:href="#p"/>
  <use x="224" y="256" xlink:href="#p"/>
  <use x="232" y="32" xlink:href="#p"/>
  <use x="232" y="48" xlink:href="#p"/>
  <use x="232" y="56" xlink:href="#p"/>
  <use x="232" y="64" xlink:href="#p"/>
  <use x="232" y="80" xlink:href="#p"/>
  <use x="232" y="120" xlink:href="#p"/>
  <use x="232" y="136" xlink:href="#p"/>
  <use x="232" y="160" xlink:href="#p"/>
  <use x="232" y="176" xlink:href="#p"/>
  <use x="232" y="184" xlink:href="#p"/>
  <use x="232" y="192" xlink:href="#p"/>
  <use x="232" y="200" xlink:href="#p"/>
  <use x="232" y="208" xlink:href="#p"/>
  <use x="232" y="224" xlink:href="#p"/>
  <use x="232" y="248" xlink:href="#p"/>
  <use x="240" y="32" xlink:href="#p"/>
  <use x="240" y="48" xlink:href="#p"/>
  <use x="240" y="56" xlink:href="#p"/>
  <use x="240" y="64" xlink:href="#p"/>
  <use x="240" y="80" xlink:href="#p"/>
  <use x="240" y="96" xlink:href="#p"/>
  <use x="240" y="104" xlink:href="#p"/>
  <use x="240" y="112" xlink:href="#p"/>
  <use x="240" y="136" xlink:href="#p"/>
  <use x="240" y="144" xlink:href="#p"/>
  <use x="240" y="152" xlink:href="#p"/>
  <use x="240" y="168" xlink:href="#p"/>
  <use x="240" y="184" xlink:href="#p"/>
  <use x="240" y="192" xlink:href="#p"/>
  <use x="240" y="240" xlink:href="#p"/>
  <use x="240" y="248" xlink:href="#p"/>
  <use x="248" y="32" xlink:href="#p"/>
  <use x="248" y="80" xlink:href="#p"/>
  <use x="248" y="96" xlink:href="#p"/>
  <use x="248" y="104" xlink:href="#p"/>
  <use x="248" y="136" xlink:href="#p"/>
  <use x="248" y="168" xlink:href="#p"/>
  <use x="248" y="192" xlink:href="#p"/>
  <use x="248" y="224" xlink:href="#p"/>
  <use x="248" y="240" xlink:href="#p"/>
  <use x="256" y="32" xlink:href="#p"/>
  <use x="256" y="40" xlink:href="#p"/>
  <use x="256" y="48" xlink:href="#p"/>
  <use x="256" y="56" xlink:href="#p"/>
  <use x="256" y="64" xlink:href="#p"/>
  <use x="256" y="72" xlink:href="#p"/>
  <use x="256" y="80" xlink:href="#p"/>
  <use x="256" y="96" xlink:href="#p"/>
  <use x="256" y="120" xlink:href="#p"/>
  <use x="256" y="128" xlink:href="#p"/>
  <use x="256" y="136" xlink:href="#p"/>
  <use x="256" y="144" xlink:href="#p"/>
  <use x="256" y="152" xlink:href="#p"/>
  <use x="256" y="176" xlink:href="#p"/>
  <use x="256" y="224" xlink:href="#p"/>
  <use x="256" y="232" xlink:href="#p"/>
  <use x="256" y="240" xlink:href="#p"/>
  <use x="256" y="248" xlink:href="#p"/>
 </g>
</svg>
