<?xml version="1.0" standalone="no"?><!DOCTYPE svg PUBLIC "-//W3C//DTD SVG 1.1//EN" "http://www.w3.org/Graphics/SVG/1.1/DTD/svg11.dtd"><svg t="1628776309346" class="icon" viewBox="0 0 1027 1024" version="1.1" xmlns="http://www.w3.org/2000/svg" p-id="4215" xmlns:xlink="http://www.w3.org/1999/xlink" width="200.5859375" height="200"><defs><style type="text/css"></style></defs><path d="M823.939174 973.22314H252.86876a93.767934 93.767934 0 0 1-93.767934-93.767933V308.384793a93.767934 93.767934 0 0 1 93.767934-93.767933h571.070414a33.85124 33.85124 0 0 1 0 67.702479H252.86876a26.065455 26.065455 0 0 0-26.065454 26.065454v571.070414a26.065455 26.065455 0 0 0 26.065454 26.065454h571.070414a26.302413 26.302413 0 0 0 26.065454-26.065454v-264.716695a33.85124 33.85124 0 0 1 67.702479 0v264.716695a93.767934 93.767934 0 0 1-93.767933 93.767933z" p-id="4216" fill="#ffffff"></path><path d="M551.775207 743.711736a73.626446 73.626446 0 0 1-8.801323-0.338513 82.224661 82.224661 0 0 1-56.193058-31.14314l-143.190743-170.948761a33.85124 33.85124 0 1 1 51.792396-43.329586l143.867769 171.625785a16.282446 16.282446 0 0 0 10.832397 6.431735 15.30076 15.30076 0 0 0 11.170909-3.385124L968.483967 277.918678A33.85124 33.85124 0 1 1 1015.53719 326.32595L606.275702 722.723967a84.188033 84.188033 0 0 1-54.500495 20.987769zM50.438347 715.276694a33.85124 33.85124 0 0 1-33.85124-33.851239V274.872066a194.170711 194.170711 0 0 1 195.321653-192.613554h347.652232a33.85124 33.85124 0 0 1 0 67.70248H211.90876a126.298975 126.298975 0 0 0-127.619173 124.911074v406.553389a33.85124 33.85124 0 0 1-33.85124 33.851239z" p-id="4217" fill="#ffffff"></path></svg>