<?xml version="1.0" encoding="UTF-8"?>
<svg width="512" height="512" version="1.1" viewBox="0 0 135.47 135.47" xmlns="http://www.w3.org/2000/svg">
 <path d="m62.383 15.048c2.3786-4.1196 8.3238-4.1196 10.702 0l57.266 99.192c2.3786 4.1196-0.59532 9.2684-5.3525 9.2684h-114.53c-4.7572 0-7.7311-5.1488-5.3525-9.2684l28.633-49.596z" fill="#fff" fill-opacity=".96471" stroke-width=".26458"/>
 <path d="m111.7 104.54-38.619-66.892c-2.3786-4.1196-8.3238-4.1196-10.702 0l-38.619 66.892c-2.3786 4.1196 0.59531 9.2684 5.3525 9.2684h22.59l6.8077-11.79 7.0855-12.271c0.87312-1.5108 3.0533-1.5108 3.9264 0l7.0855 12.271 6.8077 11.79h22.937c4.7519 3e-3 7.7258-5.1488 5.3472-9.2684z" fill="#94cbff" stroke-width=".26458"/>
</svg>
